<svg width="25" height="28" viewBox="0 0 25 28" fill="none" xmlns="http://www.w3.org/2000/svg">
  <path
    d="M4.23229 21.7778C3.69756 21.7778 3.23981 21.5874 2.85902 21.2066C2.47824 20.8258 2.28784 20.368 2.28784 19.8333V8.16666C2.28784 7.63194 2.47824 7.17418 2.85902 6.7934C3.23981 6.41261 3.69756 6.22222 4.23229 6.22222H19.7878C20.3226 6.22222 20.7803 6.41261 21.1611 6.7934C21.5419 7.17418 21.7323 7.63194 21.7323 8.16666V19.8333C21.7323 20.368 21.5419 20.8258 21.1611 21.2066C20.7803 21.5874 20.3226 21.7778 19.7878 21.7778H4.23229ZM4.23229 19.8333H19.7878V10.1111H4.23229V19.8333ZM7.63506 18.8611L6.27395 17.5L8.77743 14.9722L6.24965 12.4444L7.63506 11.0833L11.524 14.9722L7.63506 18.8611ZM12.0101 18.8611V16.9167H17.8434V18.8611H12.0101Z"
  />
</svg>
